<svg width="48" height="48" fill="currentColor" viewBox="0 0 24 24" xmlns="http://www.w3.org/2000/svg">
  <path d="M10.542 19.267a74.67 74.67 0 0 0 0-14.534 1.1 1.1 0 0 0-.753-.935 8.258 8.258 0 0 0-5.078 0c-.412.134-.71.5-.753.935a74.663 74.663 0 0 0 0 14.534c.043.434.34.8.753.934a8.259 8.259 0 0 0 5.078 0c.412-.133.71-.5.753-.934Z"></path>
  <path d="M20.042 19.267a74.67 74.67 0 0 0 0-14.534 1.1 1.1 0 0 0-.753-.935 8.258 8.258 0 0 0-5.078 0c-.412.134-.71.5-.753.935a74.67 74.67 0 0 0 0 14.534c.043.434.34.8.753.934a8.259 8.259 0 0 0 5.078 0c.412-.133.71-.5.753-.934Z"></path>
</svg>